<svg id="Layer_1" data-name="Layer 1" xmlns="http://www.w3.org/2000/svg" width="24.54058" height="40" viewBox="0 0 24.54058 40"><path d="M8.38431,25.8393a1.71057,1.71057,0,0,1-1.354-.66116L.362,16.61387a1.71429,1.71429,0,1,1,2.70535-2.10625l6.6683,8.56428a1.71428,1.71428,0,0,1-1.35134,2.7674Z"/><path d="M8.98743,13.97414a1.70691,1.70691,0,0,1-1.13794-.43259l-4.042-3.59107A1.71426,1.71426,0,1,1,6.08431,7.38709l4.042,3.59107a1.71428,1.71428,0,0,1-1.13884,2.996Z"/><path d="M1.71333,17.27547a1.71511,1.71511,0,0,1-1.55089-2.4424l3.23125-6.892A1.71433,1.71433,0,1,1,6.49815,9.39647L3.2669,16.28842A1.71467,1.71467,0,0,1,1.71333,17.27547Z"/><path d="M15.9593,40A1.71415,1.71415,0,0,1,14.245,38.28572V24.125a1.71428,1.71428,0,0,1,3.42856,0v14.1607A1.71415,1.71415,0,0,1,15.9593,40Z"/><path d="M8.38431,40A1.71416,1.71416,0,0,1,6.67,38.28572V24.125a1.71429,1.71429,0,0,1,3.42857,0v14.1607A1.71415,1.71415,0,0,1,8.38431,40Z"/><path d="M16.55528,20.70449a1.71428,1.71428,0,0,1-1.237-2.90089l6.27053-6.53883a1.71448,1.71448,0,0,1,2.475,2.37321l-6.27052,6.53883A1.71058,1.71058,0,0,1,16.55528,20.70449Z"/><path d="M12.82314,17.12547a1.71428,1.71428,0,0,1-1.2366-2.90088l6.271-6.53884a1.71416,1.71416,0,1,1,2.4741,2.37322l-6.271,6.53883A1.70958,1.70958,0,0,1,12.82314,17.12547Z"/><path d="M12.0593,10.45227a1.71429,1.71429,0,0,1-1.237-2.90089l3.30357-3.44464A1.71415,1.71415,0,1,1,16.59992,6.48L13.29636,9.92459A1.70934,1.70934,0,0,1,12.0593,10.45227Z"/><path d="M8.32717,6.87326A1.71428,1.71428,0,0,1,7.09011,3.97237L10.39323.52773a1.71448,1.71448,0,1,1,2.475,2.37321L9.56511,6.34558A1.71056,1.71056,0,0,1,8.32717,6.87326Z"/></svg>