<svg id="Layer_1" data-name="Layer 1" xmlns="http://www.w3.org/2000/svg" width="23.459" height="40" viewBox="0 0 23.459 40"><path d="M11.7295,4.70586a7.0237,7.0237,0,1,1-7.02364,7.0237,7.0316,7.0316,0,0,1,7.02364-7.0237M11.7295,0A11.72956,11.72956,0,1,0,23.459,11.72956,11.72962,11.72962,0,0,0,11.7295,0Z"/><path d="M11.72973,40A2.35275,2.35275,0,0,1,9.3768,37.64707V23.45917a2.35293,2.35293,0,0,1,4.70586,0v14.1879A2.35275,2.35275,0,0,1,11.72973,40Z"/><path d="M16.42134,32.90582H7.03765a2.35293,2.35293,0,0,1,0-4.70586h9.38369a2.35293,2.35293,0,1,1,0,4.70586Z"/></svg>