<svg id="Layer_1" data-name="Layer 1" xmlns="http://www.w3.org/2000/svg" xmlns:xlink="http://www.w3.org/1999/xlink" width="22.04" height="22.04019" viewBox="0 0 22.04 22.04019"><defs><style>.cls-1{fill:none;}.cls-2{clip-path:url(#clip-path);}.cls-3{fill:#231f20;}</style><clipPath id="clip-path"><rect class="cls-1" width="22.04" height="22.04"/></clipPath></defs><g class="cls-2"><path class="cls-3" d="M2.50042,22.04019A2.5,2.5,0,0,1,.73284,17.77261l6.874-6.874A2.49973,2.49973,0,1,1,11.142,14.43374l-6.874,6.874A2.49107,2.49107,0,0,1,2.50042,22.04019Z"/><path class="cls-3" d="M14.68108,14.716a7.3519,7.3519,0,1,1,5.20459-2.15283A7.33693,7.33693,0,0,1,14.68108,14.716Zm0-9.7168A2.35395,2.35395,0,1,0,16.351,5.6896,2.35486,2.35486,0,0,0,14.68108,4.99917Z"/></g></svg>