<svg id="Layer_1" data-name="Layer 1" xmlns="http://www.w3.org/2000/svg" xmlns:xlink="http://www.w3.org/1999/xlink" width="16" height="16" viewBox="0 0 16 16"><defs><style>.cls-1{fill:url(#linear-gradient);}</style><linearGradient id="linear-gradient" y1="8" x2="16" y2="8" gradientUnits="userSpaceOnUse"><stop offset="0" stop-color="#fde997"/><stop offset="1" stop-color="#ec0000"/></linearGradient></defs><rect class="cls-1" width="16" height="16"/><path d="M7.07811,9.38529a.40583.40583,0,0,1-.32122-.15685L5.17494,7.19669a.40669.40669,0,1,1,.6418-.49967l1.582,2.03174a.40669.40669,0,0,1-.32058.65653Z"/><path d="M7.22119,6.57046a.40495.40495,0,0,1-.27-.10263l-.95889-.85192a.40668.40668,0,1,1,.54013-.60813l.95889.85193a.40668.40668,0,0,1-.27017.71075Z"/><path d="M5.49552,7.35365a.40688.40688,0,0,1-.36792-.57943l.76656-1.635a.4067.4067,0,0,1,.73649.34526l-.76657,1.635A.40676.40676,0,0,1,5.49552,7.35365Z"/><path d="M8.87516,12.74469a.40665.40665,0,0,1-.40669-.40668V8.9786a.40669.40669,0,0,1,.81338,0V12.338A.40665.40665,0,0,1,8.87516,12.74469Z"/><path d="M7.07811,12.74469a.40665.40665,0,0,1-.40669-.40668V8.9786a.40669.40669,0,0,1,.81338,0V12.338A.40665.40665,0,0,1,7.07811,12.74469Z"/><path d="M9.01655,8.16713a.40668.40668,0,0,1-.29347-.68819L10.21066,5.9277a.40674.40674,0,0,1,.58716.563L9.31023,8.042A.40579.40579,0,0,1,9.01655,8.16713Z"/><path d="M8.13116,7.31806a.40669.40669,0,0,1-.29337-.68819L9.32548,5.07863a.40666.40666,0,0,1,.58695.563L8.42473,7.19288A.40557.40557,0,0,1,8.13116,7.31806Z"/><path d="M7.95,5.735a.40669.40669,0,0,1-.29347-.68819l.78372-.81719a.40666.40666,0,1,1,.58694.563l-.78372.81718A.4055.4055,0,0,1,7.95,5.735Z"/><path d="M7.06455,4.88588a.40669.40669,0,0,1-.29347-.68819L7.5547,3.3805a.40673.40673,0,0,1,.58715.563l-.78361.81719A.40583.40583,0,0,1,7.06455,4.88588Z"/><path d="M8,1.60925a6.39055,6.39055,0,0,1,4.5188,10.90967,6.39063,6.39063,0,1,1-9.0376-9.03784A6.34842,6.34842,0,0,1,8,1.60925M8,.93609a7.06411,7.06411,0,1,0,4.99487,2.069A7.04157,7.04157,0,0,0,8,.93609Z"/></svg>